<?xml version="1.0" encoding="UTF-8" standalone="no"?>
<!-- Created with Inkscape (http://www.inkscape.org/) -->

<svg
   xmlns:dc="http://purl.org/dc/elements/1.1/"
   xmlns:cc="http://creativecommons.org/ns#"
   xmlns:rdf="http://www.w3.org/1999/02/22-rdf-syntax-ns#"
   xmlns:svg="http://www.w3.org/2000/svg"
   xmlns="http://www.w3.org/2000/svg"
   xmlns:sodipodi="http://sodipodi.sourceforge.net/DTD/sodipodi-0.dtd"
   xmlns:inkscape="http://www.inkscape.org/namespaces/inkscape"
   width="210mm"
   height="297mm"
   viewBox="0 0 744.09448819 1052.3622047"
   id="svg2"
   version="1.1"
   inkscape:version="0.91 r13725"
   sodipodi:docname="Donut.svg">
  <defs
     id="defs4">
    <inkscape:perspective
       sodipodi:type="inkscape:persp3d"
       inkscape:vp_x="0 : 526.1811 : 1"
       inkscape:vp_y="0 : 1000 : 0"
       inkscape:vp_z="744.09449 : 526.1811 : 1"
       inkscape:persp3d-origin="372.04724 : 350.7874 : 1"
       id="perspective4139" />
  </defs>
  <sodipodi:namedview
     id="base"
     pagecolor="#ffffff"
     bordercolor="#666666"
     borderopacity="1.0"
     inkscape:pageopacity="0.0"
     inkscape:pageshadow="2"
     inkscape:zoom="1"
     inkscape:cx="322.74187"
     inkscape:cy="676.2823"
     inkscape:document-units="px"
     inkscape:current-layer="g4366"
     showgrid="false"
     inkscape:snap-global="false"
     inkscape:window-width="1920"
     inkscape:window-height="1018"
     inkscape:window-x="-8"
     inkscape:window-y="-8"
     inkscape:window-maximized="1">
    <inkscape:grid
       type="xygrid"
       id="grid4373" />
  </sodipodi:namedview>
  <metadata
     id="metadata7">
    <rdf:RDF>
      <cc:Work
         rdf:about="">
        <dc:format>image/svg+xml</dc:format>
        <dc:type
           rdf:resource="http://purl.org/dc/dcmitype/StillImage" />
        <dc:title />
      </cc:Work>
    </rdf:RDF>
  </metadata>
  <g
     inkscape:label="Layer 1"
     inkscape:groupmode="layer"
     id="layer1">
    <g
       id="g4366"
       transform="translate(-80,-80)">
      <g
         id="g4233"
         transform="translate(-3,-34)">
        <path
           sodipodi:nodetypes="csscccccccccscscs"
           inkscape:connector-curvature="0"
           id="path3336"
           transform="translate(80,80)"
           d="M 365.5,221.7207 C 227.9035,221.72085 116.35953,333.26483 116.35938,470.86133 116.35845,608.4586 227.90273,720.00376 365.5,720.00391 503.09727,720.00376 614.64155,608.4586 614.64062,470.86133 c -0.0457,-42.7371 -11.08433,-84.74392 -32.05468,-121.98242 -9.75915,2.54193 -20.13897,0.80888 -28.54297,-4.76563 -10.40279,-6.94514 -16.37782,-18.85661 -15.72461,-31.34766 -19.45709,15.18348 -49.2756,26.81914 -69.83234,13.16129 -20.52633,-13.70342 -27.15221,-49.61095 -20.64227,-73.41714 -11.27726,5.43822 -24.58634,4.52739 -35.01758,-2.39649 -8.85241,-5.9031 -14.58672,-15.46888 -15.62109,-26.05859 -10.5079,-1.45216 -21.09781,-2.23175 -31.70508,-2.33399 z m 0,161.94141 c 48.15878,5e-5 87.19917,39.04044 87.19922,87.19922 10e-4,48.15954 -39.03968,87.20112 -87.19922,87.20117 -48.15954,-5e-5 -87.20025,-39.04163 -87.19922,-87.20117 5e-5,-48.15878 39.04044,-87.19917 87.19922,-87.19922 z"
           style="opacity:1;fill:#deaa87;fill-opacity:1;fill-rule:evenodd;stroke:#000000;stroke-width:1.71800005;stroke-linecap:butt;stroke-linejoin:miter;stroke-miterlimit:4;stroke-dasharray:none;stroke-opacity:0" />
        <path
           style="opacity:0.50375941;fill:#ffffff;fill-opacity:0.60135139;fill-rule:evenodd;stroke:#000000;stroke-width:1.71800005;stroke-linecap:butt;stroke-linejoin:miter;stroke-miterlimit:4;stroke-dasharray:none;stroke-opacity:0"
           d="m 615.54102,463.35742 c -10.27174,0.164 -20.38569,5.95792 -25.0625,15.44336 -5.34081,12.12016 -7.00913,24.82738 -7.47266,37.74219 3.20764,12.09159 4.7098,24.64824 4.19141,37.35742 -0.95015,70.53138 -61.94046,135.16037 -132.74805,138.37305 -68.85552,4.77825 -137.52144,-47.70206 -148.35547,-116.37696 -2.80538,-15.22691 -2.77828,-30.80714 -0.28125,-46.01562 -15.09933,-13.20423 -40.94496,-14.23841 -54.66211,1.16406 -6.04962,66.34257 22.7552,135.81535 76.70117,175.94141 63.93217,48.02598 158.21515,52.61291 224.7168,7.22265 61.28567,-40.43494 97.9678,-117.10398 86.33203,-190.03515 -2.93361,-21.01343 -9.48151,-41.51963 -19.0332,-60.54102 -1.43562,-0.20487 -2.88211,-0.29844 -4.32617,-0.27539 z"
           id="path4136"
           inkscape:connector-curvature="0" />
        <path
           sodipodi:nodetypes="ccccccccccccccccccccccccccccccccc"
           inkscape:connector-curvature="0"
           id="path4141"
           d="m 447.91797,301.96172 c -1.41944,-0.0108 -2.8399,-0.009 -4.25977,0.006 -98.30439,-0.15153 -193.85456,64.06785 -229.16406,156.11133 -16.2575,39.79729 -19.60514,83.44786 -18.30469,126.01562 -0.33729,13.03304 -0.71672,28.53938 9.27735,38.38086 9.59967,7.14813 26.74588,2.73671 28.75586,-9.95117 7.9562,-26.03887 -0.25258,-55.74601 15.34961,-79.375 14.43878,-18.97347 45.69778,-16.54877 60.26562,1.04101 14.02247,16.21357 13.23067,39.27974 17.53516,59.25977 1.90895,6.84087 3.16568,16.70472 11.6582,18.08398 10.56917,2.18476 21.27765,-7.47309 20.30859,-18.23046 2.57932,-24.57578 -5.52751,-50.33589 4.90039,-73.82422 14.31856,-39.57538 60.72479,-64.24127 101.63477,-53.35157 35.10035,8.35156 63.24321,40.34699 66.6543,76.10547 1.06751,13.69069 2.80264,27.85299 10.41797,39.66407 4.8758,8.02985 12.58394,16.82556 22.68164,16.75 10.82328,-1.70993 14.39894,-13.96095 15.3125,-23.34766 5.70939,-31.84847 -3.85418,-65.90931 9.53711,-96.29883 6.50687,-13.19714 23.53931,-19.24843 36.87695,-12.93359 10.67888,4.23589 16.75968,14.83602 19.26172,25.55078 10.0901,32.85698 3.08587,68.46588 13.04687,101.50195 2.67201,7.19026 7.85156,16.67915 16.95703,15.07617 7.92229,-0.8931 12.12346,-8.60906 13.60743,-15.65039 6.13599,-20.41735 4.01373,-42.1114 3.3789,-63.08593 -2.67441,-31.21695 -6.5836,-67.4797 -20.59517,-95.50061 -15.79027,12.82499 -38.13465,22.51624 -51.19975,13.8385 -10.40151,-6.94833 -13.23483,-18.27342 -15.86748,-27.60854 -23.07859,10.01729 -41.19888,18.96301 -66.00121,5.31181 -22.64389,-11.58882 -27.53095,-40.56644 -28.71215,-69.10908 -15.77228,2.28423 -27.27577,5.03133 -37.70898,-1.88904 -14.2658,-9.51924 -14.24486,-32.15013 -8.34766,-50.39258 -8.07572,-0.88851 -9.1251,-2.08678 -17.25705,-2.14851 z"
           style="opacity:1;fill:#6c5353;fill-rule:evenodd;stroke:#4c4040;stroke-width:11;stroke-linecap:butt;stroke-linejoin:miter;stroke-miterlimit:4;stroke-dasharray:none;stroke-opacity:1" />
        <path
           sodipodi:nodetypes="ccccccccccccccccc"
           inkscape:connector-curvature="0"
           id="path4349"
           d="m 442.81641,357.67383 c -88.20545,0.0319 -171.11271,68.72643 -187.14246,155.5365 -0.31925,3.21108 5.88491,-1.57801 8.68152,-1.57166 14.02126,-3.8752 29.4684,-1.61057 41.94922,5.80274 12.82482,-53.85094 58.90178,-99.64896 114.44001,-107.67099 31.40814,-5.66269 64.45546,-0.97613 93.23186,12.75497 -9.25718,-17.18454 -18.68285,-34.30624 -13.71957,-53.00939 -13.63736,7.57091 -26.19321,3.11825 -35.39371,-10.81288 -7.32367,-0.74107 -14.68544,-1.09899 -22.04687,-1.02929 z m 156.44381,76.22693 c -16.52251,9.31183 -42.08032,11.11114 -59.67091,8.30236 13.40806,13.69303 27.01828,30.82866 36.37553,47.41797 3.30839,-15.75704 16.47208,-36.90246 38.68334,-34.20323 -1.03572,-3.39104 -0.96662,-3.87837 -2.94054,-6.82869 -2.02805,-3.22838 -2.31597,-3.66128 -3.40784,-5.32685 -1.70247,-2.18643 -3.24155,-3.60425 -6.46288,-7.1146 z"
           style="opacity:0.50375941;fill:#ffffff;fill-opacity:0.64864861;fill-rule:evenodd;stroke:#000000;stroke-width:1.71800005;stroke-linecap:butt;stroke-linejoin:miter;stroke-miterlimit:4;stroke-dasharray:none;stroke-opacity:0" />
      </g>
      <rect
         inkscape:transform-center-y="-33.999991"
         inkscape:transform-center-x="-222.00002"
         transform="matrix(0.81725966,-0.5762696,-0.95610973,-0.29300883,0,0)"
         ry="0.06800478"
         y="-603.00928"
         x="-229.02948"
         height="2.8562007"
         width="30.850569"
         id="rect4265"
         style="opacity:1;fill:#37c837;fill-opacity:1;stroke:#ec2f17;stroke-width:2.72105551;stroke-linecap:round;stroke-linejoin:round;stroke-miterlimit:4;stroke-dasharray:none;stroke-opacity:1" />
      <rect
         inkscape:transform-center-y="-34.000005"
         inkscape:transform-center-x="-221.99997"
         transform="matrix(0.81725966,-0.5762696,-0.95610973,-0.29300883,0,0)"
         ry="0.06800478"
         y="-663.17664"
         x="-515.99658"
         height="2.8562007"
         width="30.850569"
         id="rect4267"
         style="opacity:1;fill:#37c837;fill-opacity:1;stroke:#ec2f17;stroke-width:2.72105551;stroke-linecap:round;stroke-linejoin:round;stroke-miterlimit:4;stroke-dasharray:none;stroke-opacity:1"
         rx="0.06800478" />
      <rect
         inkscape:transform-center-y="-34.000001"
         inkscape:transform-center-x="-221.99996"
         transform="matrix(0.81725966,-0.5762696,-0.95610973,-0.29300883,0,0)"
         ry="0.06800478"
         y="-841.59412"
         x="-303.80789"
         height="2.8562007"
         width="30.850569"
         id="rect4271"
         style="opacity:1;fill:#37c837;fill-opacity:1;stroke:#ec2f17;stroke-width:2.72105551;stroke-linecap:round;stroke-linejoin:round;stroke-miterlimit:4;stroke-dasharray:none;stroke-opacity:1"
         rx="0.06800478" />
      <rect
         inkscape:transform-center-y="-33.999995"
         inkscape:transform-center-x="-222"
         transform="matrix(0.81725966,-0.5762696,-0.95610973,-0.29300883,0,0)"
         ry="0.06800478"
         y="-668.23938"
         x="-260.06876"
         height="2.8562007"
         width="30.850569"
         id="rect4273"
         style="opacity:1;fill:#37c837;fill-opacity:1;stroke:#ec2f17;stroke-width:2.72105551;stroke-linecap:round;stroke-linejoin:round;stroke-miterlimit:4;stroke-dasharray:none;stroke-opacity:1" />
      <rect
         inkscape:transform-center-y="-34.000004"
         inkscape:transform-center-x="-222.00001"
         transform="matrix(0.81725966,-0.5762696,-0.95610973,-0.29300883,0,0)"
         ry="0.06800478"
         y="-652.98267"
         x="-351.12048"
         height="2.8562007"
         width="30.850569"
         id="rect4275"
         style="opacity:1;fill:#37c837;fill-opacity:1;stroke:#ec2f17;stroke-width:2.72105551;stroke-linecap:round;stroke-linejoin:round;stroke-miterlimit:4;stroke-dasharray:none;stroke-opacity:1" />
      <rect
         inkscape:transform-center-y="-33.999998"
         inkscape:transform-center-x="-222.00002"
         transform="matrix(0.81725966,-0.5762696,-0.95610973,-0.29300883,0,0)"
         ry="0.06800478"
         y="-580.43542"
         x="-282.15448"
         height="2.8562007"
         width="30.850569"
         id="rect4277"
         style="opacity:1;fill:#37c837;fill-opacity:1;stroke:#ec2f17;stroke-width:2.72105551;stroke-linecap:round;stroke-linejoin:round;stroke-miterlimit:4;stroke-dasharray:none;stroke-opacity:1"
         rx="0.06800478" />
      <rect
         style="opacity:1;fill:#ffcc00;fill-opacity:1;stroke:#ecd517;stroke-width:2.63524771;stroke-linecap:round;stroke-linejoin:round;stroke-miterlimit:4;stroke-dasharray:none;stroke-opacity:1"
         id="rect4279"
         width="28.934357"
         height="2.3350871"
         x="-273.6218"
         y="294.55893"
         ry="0.068003424"
         transform="matrix(-0.9574428,-0.28862309,0.27214982,0.96225489,0,0)"
         rx="0.066913933" />
      <rect
         style="opacity:1;fill:#ffcc00;fill-opacity:1;stroke:#ecd517;stroke-width:2.72105551;stroke-linecap:round;stroke-linejoin:round;stroke-miterlimit:4;stroke-dasharray:none;stroke-opacity:1"
         id="rect4281"
         width="30.850569"
         height="2.8562007"
         x="-486.24521"
         y="62.304764"
         ry="0.06800478"
         transform="matrix(-0.7981742,-0.60242672,0.01272896,0.99991898,0,0)" />
      <rect
         style="opacity:1;fill:#ffcc00;fill-opacity:1;stroke:#ecd517;stroke-width:2.72105551;stroke-linecap:round;stroke-linejoin:round;stroke-miterlimit:4;stroke-dasharray:none;stroke-opacity:1"
         id="rect4283"
         width="30.850569"
         height="2.8562007"
         x="-356.40866"
         y="190.53217"
         ry="0.06800478"
         transform="matrix(-0.7981742,-0.60242672,0.01272896,0.99991898,0,0)" />
      <rect
         style="opacity:1;fill:#ffcc00;fill-opacity:1;stroke:#ecd517;stroke-width:2.72105551;stroke-linecap:round;stroke-linejoin:round;stroke-miterlimit:4;stroke-dasharray:none;stroke-opacity:1"
         id="rect4285"
         width="30.850569"
         height="2.8562007"
         x="-1003.0791"
         y="-435.26495"
         ry="0.06800478"
         transform="matrix(-0.50703326,-0.86192649,-0.3707252,0.9287426,0,0)"
         rx="0.06800478" />
      <rect
         style="opacity:1;fill:#ffcc00;fill-opacity:1;stroke:#1eec17;stroke-width:2.72105551;stroke-linecap:round;stroke-linejoin:round;stroke-miterlimit:4;stroke-dasharray:none;stroke-opacity:1"
         id="rect4287"
         width="30.850569"
         height="2.8562007"
         x="-279.32358"
         y="368.04361"
         ry="0.06800478"
         transform="matrix(-0.96945335,-0.24527577,0.39995077,0.91653662,0,0)"
         rx="0.06800478" />
      <rect
         style="opacity:1;fill:#ffcc00;fill-opacity:1;stroke:#1eec17;stroke-width:2.72105551;stroke-linecap:round;stroke-linejoin:round;stroke-miterlimit:4;stroke-dasharray:none;stroke-opacity:1"
         id="rect4289"
         width="30.850569"
         height="2.8562007"
         x="-610.10388"
         y="-5.3164635"
         ry="0.06800478"
         transform="matrix(-0.7981742,-0.60242672,0.01272896,0.99991898,0,0)" />
      <rect
         style="opacity:1;fill:#ffcc00;fill-opacity:1;stroke:#1eec17;stroke-width:2.72105551;stroke-linecap:round;stroke-linejoin:round;stroke-miterlimit:4;stroke-dasharray:none;stroke-opacity:1"
         id="rect4291"
         width="30.850569"
         height="2.8562007"
         x="-685.32416"
         y="-385.33759"
         ry="0.06800478"
         transform="matrix(-0.35996702,-0.93296503,-0.51696064,0.85600917,0,0)"
         rx="0.06800478" />
      <rect
         style="opacity:1;fill:#ffcc00;fill-opacity:1;stroke:#1eec17;stroke-width:2.72105551;stroke-linecap:round;stroke-linejoin:round;stroke-miterlimit:4;stroke-dasharray:none;stroke-opacity:1"
         id="rect4293"
         width="30.850569"
         height="2.8562007"
         x="-237.08344"
         y="412.15039"
         ry="0.06800478"
         transform="matrix(-0.99254542,-0.12187534,0.51163632,0.85920211,0,0)"
         rx="0.06800478"
         inkscape:transform-center-x="29"
         inkscape:transform-center-y="-29" />
      <rect
         style="opacity:1;fill:#ffcc00;fill-opacity:1;stroke:#1eec17;stroke-width:2.72105551;stroke-linecap:round;stroke-linejoin:round;stroke-miterlimit:4;stroke-dasharray:none;stroke-opacity:1"
         id="rect4295"
         width="30.850569"
         height="2.8562007"
         x="-459.59219"
         y="162.36929"
         ry="0.06800478"
         transform="matrix(-0.7981742,-0.60242672,0.01272896,0.99991898,0,0)" />
      <rect
         style="opacity:1;fill:#ffcc00;fill-opacity:1;stroke:#1eec17;stroke-width:2.72105551;stroke-linecap:round;stroke-linejoin:round;stroke-miterlimit:4;stroke-dasharray:none;stroke-opacity:1"
         id="rect4297"
         width="30.850569"
         height="2.8562007"
         x="-312.85062"
         y="250.77751"
         ry="0.06800478"
         transform="matrix(-0.7981742,-0.60242672,0.01272896,0.99991898,0,0)" />
      <rect
         style="opacity:1;fill:#ffcc00;fill-opacity:1;stroke:#1eec17;stroke-width:2.72105551;stroke-linecap:round;stroke-linejoin:round;stroke-miterlimit:4;stroke-dasharray:none;stroke-opacity:1"
         id="rect4299"
         width="30.850569"
         height="2.8562007"
         x="-683.51569"
         y="26.460783"
         ry="0.06800478"
         transform="matrix(-0.7981742,-0.60242672,0.01272896,0.99991898,0,0)"
         rx="0.06800478" />
      <rect
         style="opacity:1;fill:#37c837;fill-opacity:1;stroke:#ec2f17;stroke-width:2.72105551;stroke-linecap:round;stroke-linejoin:round;stroke-miterlimit:4;stroke-dasharray:none;stroke-opacity:1"
         id="rect4369"
         width="30.850569"
         height="2.8562007"
         x="-281.54776"
         y="-743.50208"
         ry="0.06800478"
         transform="matrix(0.85486728,-0.51884673,-0.93375642,-0.35790913,0,0)"
         inkscape:transform-center-x="-223.80939"
         inkscape:transform-center-y="-18.690382"
         rx="0.06800478" />
      <rect
         style="opacity:1;fill:#37c837;fill-opacity:1;stroke:#ec2f17;stroke-width:2.72105551;stroke-linecap:round;stroke-linejoin:round;stroke-miterlimit:4;stroke-dasharray:none;stroke-opacity:1"
         id="rect4371"
         width="30.850569"
         height="2.8562007"
         x="-330.51776"
         y="-788.38788"
         ry="0.06800478"
         transform="matrix(0.80713821,-0.59036252,-0.96104959,-0.27637597,0,0)"
         inkscape:transform-center-x="-221.37665"
         inkscape:transform-center-y="-37.846631"
         rx="0.06800478" />
      <rect
         style="opacity:1;fill:#37c837;fill-opacity:1;stroke:#ec2f17;stroke-width:2.72105551;stroke-linecap:round;stroke-linejoin:round;stroke-miterlimit:4;stroke-dasharray:none;stroke-opacity:1"
         id="rect4375"
         width="30.850569"
         height="2.8562007"
         x="-260.06876"
         y="-668.23938"
         ry="0.06800478"
         transform="matrix(0.81725966,-0.5762696,-0.95610973,-0.29300883,0,0)"
         inkscape:transform-center-x="-222"
         inkscape:transform-center-y="-33.999995" />
      <rect
         style="opacity:1;fill:#37c837;fill-opacity:1;stroke:#ec2f17;stroke-width:2.72105551;stroke-linecap:round;stroke-linejoin:round;stroke-miterlimit:4;stroke-dasharray:none;stroke-opacity:1"
         id="rect4377"
         width="30.850569"
         height="2.8562007"
         x="-351.12048"
         y="-652.98267"
         ry="0.06800478"
         transform="matrix(0.81725966,-0.5762696,-0.95610973,-0.29300883,0,0)"
         inkscape:transform-center-x="-222.00001"
         inkscape:transform-center-y="-34.000004" />
      <rect
         style="opacity:1;fill:#37c837;fill-opacity:1;stroke:#ec2f17;stroke-width:2.72105551;stroke-linecap:round;stroke-linejoin:round;stroke-miterlimit:4;stroke-dasharray:none;stroke-opacity:1"
         id="rect4379"
         width="30.850569"
         height="2.8562007"
         x="-336.60599"
         y="-575.72992"
         ry="0.06800478"
         transform="matrix(0.81725966,-0.5762696,-0.95610973,-0.29300883,0,0)"
         inkscape:transform-center-x="-222.00002"
         inkscape:transform-center-y="-33.999998"
         rx="0.06800478" />
      <rect
         transform="matrix(-0.94541284,-0.32587507,0.32151604,0.94690413,0,0)"
         ry="0.06800478"
         y="245.83435"
         x="-405.84598"
         height="2.8562007"
         width="30.850569"
         id="rect4381"
         style="opacity:1;fill:#ffcc00;fill-opacity:1;stroke:#ecd517;stroke-width:2.72105551;stroke-linecap:round;stroke-linejoin:round;stroke-miterlimit:4;stroke-dasharray:none;stroke-opacity:1"
         rx="0.06800478" />
      <rect
         transform="matrix(-0.7981742,-0.60242672,0.01272896,0.99991898,0,0)"
         ry="0.06800478"
         y="62.304764"
         x="-486.24521"
         height="2.8562007"
         width="30.850569"
         id="rect4383"
         style="opacity:1;fill:#ffcc00;fill-opacity:1;stroke:#ecd517;stroke-width:2.72105551;stroke-linecap:round;stroke-linejoin:round;stroke-miterlimit:4;stroke-dasharray:none;stroke-opacity:1" />
      <rect
         transform="matrix(-0.83477285,0.55059449,0.94654256,0.32257895,0,0)"
         ry="0.06800478"
         y="665.96912"
         x="378.82843"
         height="2.8562007"
         width="30.850569"
         id="rect4385"
         style="opacity:1;fill:#ffcc00;fill-opacity:1;stroke:#ecd517;stroke-width:2.72105551;stroke-linecap:round;stroke-linejoin:round;stroke-miterlimit:4;stroke-dasharray:none;stroke-opacity:1"
         rx="0.06800478"
         inkscape:transform-center-y="-2.9999999" />
      <rect
         transform="matrix(-0.62881065,-0.77755846,-0.22944398,0.97332187,0,0)"
         ry="0.06800478"
         y="59.381691"
         x="-550.65796"
         height="2.8562007"
         width="30.850569"
         id="rect4387"
         style="opacity:1;fill:#ffcc00;fill-opacity:1;stroke:#ecd517;stroke-width:2.72105551;stroke-linecap:round;stroke-linejoin:round;stroke-miterlimit:4;stroke-dasharray:none;stroke-opacity:1"
         rx="0.06800478" />
      <rect
         transform="matrix(-0.59551502,-0.80334417,-0.2702209,0.96279835,0,0)"
         ry="0.06800478"
         y="-193.12906"
         x="-858.06732"
         height="2.8562007"
         width="30.850569"
         id="rect4389"
         style="opacity:1;fill:#ffcc00;fill-opacity:1;stroke:#1eec17;stroke-width:2.72105551;stroke-linecap:round;stroke-linejoin:round;stroke-miterlimit:4;stroke-dasharray:none;stroke-opacity:1"
         rx="0.06800478" />
      <rect
         transform="matrix(-0.7981742,-0.60242672,0.01272896,0.99991898,0,0)"
         ry="0.06800478"
         y="-5.3164635"
         x="-610.10388"
         height="2.8562007"
         width="30.850569"
         id="rect4391"
         style="opacity:1;fill:#ffcc00;fill-opacity:1;stroke:#1eec17;stroke-width:2.72105551;stroke-linecap:round;stroke-linejoin:round;stroke-miterlimit:4;stroke-dasharray:none;stroke-opacity:1" />
      <rect
         transform="matrix(-0.57536764,-0.81789491,-0.29406344,0.9557859,0,0)"
         ry="0.06800478"
         y="-33.845482"
         x="-519.58087"
         height="2.8562007"
         width="30.850569"
         id="rect4395"
         style="opacity:1;fill:#ffcc00;fill-opacity:1;stroke:#1eec17;stroke-width:2.72105551;stroke-linecap:round;stroke-linejoin:round;stroke-miterlimit:4;stroke-dasharray:none;stroke-opacity:1"
         rx="0.06800478" />
      <rect
         transform="matrix(-0.7981742,-0.60242672,0.01272896,0.99991898,0,0)"
         ry="0.06800478"
         y="162.36929"
         x="-459.59219"
         height="2.8562007"
         width="30.850569"
         id="rect4397"
         style="opacity:1;fill:#ffcc00;fill-opacity:1;stroke:#1eec17;stroke-width:2.72105551;stroke-linecap:round;stroke-linejoin:round;stroke-miterlimit:4;stroke-dasharray:none;stroke-opacity:1" />
      <rect
         transform="matrix(-0.7981742,-0.60242672,0.01272896,0.99991898,0,0)"
         ry="0.06800478"
         y="250.77751"
         x="-312.85062"
         height="2.8562007"
         width="30.850569"
         id="rect4399"
         style="opacity:1;fill:#ffcc00;fill-opacity:1;stroke:#1eec17;stroke-width:2.72105551;stroke-linecap:round;stroke-linejoin:round;stroke-miterlimit:4;stroke-dasharray:none;stroke-opacity:1" />
      <rect
         transform="matrix(-0.96660666,-0.25626462,0.38952103,0.92101757,0,0)"
         ry="0.06800478"
         y="414.39883"
         x="-543.70032"
         height="2.8562007"
         width="30.850569"
         id="rect4401"
         style="opacity:1;fill:#ffcc00;fill-opacity:1;stroke:#1eec17;stroke-width:2.72105551;stroke-linecap:round;stroke-linejoin:round;stroke-miterlimit:4;stroke-dasharray:none;stroke-opacity:1"
         rx="0.06800478" />
    </g>
  </g>
</svg>
